<?xml version="1.0" ?><!DOCTYPE svg  PUBLIC '-//W3C//DTD SVG 1.1//EN'  'http://www.w3.org/Graphics/SVG/1.1/DTD/svg11.dtd'><svg enable-background="new 0 0 550 550" id="Layer_1" version="1.1" viewBox="0 0 550 550" xml:space="preserve" xmlns="http://www.w3.org/2000/svg" xmlns:xlink="http://www.w3.org/1999/xlink"><g><g><circle cx="275" cy="275" fill="#496779" r="256"/><path d="M283.3,165.3v55.5h52.1v34.4h-52.1v56.3c0,12.7,0.7,20.9,2,24.5c1.4,3.6,3.9,6.5,7.5,8.7     c4.8,2.9,10.4,4.4,16.7,4.4c11.1,0,22.1-3.6,33.1-10.8v34.6c-9.4,4.4-17.9,7.5-25.5,9.3c-7.6,1.8-15.8,2.7-24.7,2.7     c-10,0-18.9-1.3-26.6-3.8c-7.7-2.6-14.3-6.2-19.7-10.8c-5.4-4.7-9.2-9.7-11.3-15c-2.1-5.3-3.2-12.9-3.2-23v-77h-24.3v-31     c8.6-2.8,16-6.8,22.2-12c6.1-5.2,11.1-11.5,14.8-18.9c3.7-7.3,6.3-16.7,7.7-28H283.3z" fill="#FFFFFF"/></g></g></svg>